<?xml version="1.0" encoding="utf-8"?>
<!-- Generator: Adobe Illustrator 24.0.2, SVG Export Plug-In . SVG Version: 6.00 Build 0)  -->
<svg version="1.1" id="Layer_1" xmlns="http://www.w3.org/2000/svg" xmlns:xlink="http://www.w3.org/1999/xlink" x="0px" y="0px"
	 viewBox="0 0 250 400" style="enable-background:new 0 0 250 400;" xml:space="preserve">
<g>
	<polygon points="69.03,392.5 13.06,292 69.03,191.5 98,191.5 98,23.5 152,23.5 152,191.5 180.96,191.5 236.93,292 180.96,392.5 	
		"/>
	<path d="M151.5,24v167v1h1h28.16l55.69,100l-55.69,100H69.33L13.63,292l55.69-100H97.5h1v-1V24H151.5 M152.5,23h-55v168H68.74
		L12.49,292l56.25,101h112.51l56.25-101l-56.25-101H152.5V23L152.5,23z"/>
</g>
</svg>
